<svg width="66" height="66" viewBox="0 0 66 66" fill="none" xmlns="http://www.w3.org/2000/svg">
<path d="M33 0C14.7746 0 0 14.7746 0 33C0 51.2255 14.7747 66 33 66C51.2255 66 66 51.2254 66 33C66 14.7746 51.2255 0 33 0ZM7.09087 33.344L32.6559 58.9091C18.6178 58.7262 7.27379 47.3822 7.09087 33.344ZM38.7998 58.2613L7.73867 27.2002C10.3725 15.681 20.6823 7.08654 33 7.08654C41.6103 7.08654 49.2383 11.2871 53.9506 17.7495L50.3627 20.9153C46.5402 15.4336 40.1895 11.8461 33 11.8461C23.8463 11.8461 16.0513 17.6605 13.1049 25.7971L40.2029 52.8951C46.7837 50.5121 51.8448 44.957 53.5399 38.0769H42.3077V33.0001H54.1539V32.9999H58.9135V33C58.9135 45.3177 50.3191 55.6275 38.7998 58.2613Z" fill="#744C9E"/>
</svg>
