<svg width="59" height="66" viewBox="0 0 59 66" fill="none" xmlns="http://www.w3.org/2000/svg">
<path d="M29.7219 66C28.838 66 27.9602 65.7681 27.1853 65.322L19.1115 60.5419C17.9056 59.8676 18.494 59.629 18.8917 59.4916C20.4996 58.9286 20.8259 58.8015 22.5421 57.8268C22.7225 57.7239 22.9586 57.7603 23.1433 57.8692L29.3459 61.5499C29.5699 61.671 29.8877 61.671 30.0954 61.5499L54.2801 47.59C54.5041 47.4628 54.6494 47.2025 54.6494 46.9362V19.0284C54.6494 18.7499 54.5041 18.5017 54.2752 18.3625L30.1002 4.41469C29.8762 4.28151 29.5796 4.28151 29.3556 4.41469L5.18545 18.3625C4.95117 18.4957 4.80225 18.756 4.80225 19.0224V46.9301C4.80225 47.1965 4.94754 47.4507 5.17758 47.5779L11.8004 51.4038C15.3963 53.2018 17.5938 51.083 17.5938 48.9521V21.4075C17.5938 21.014 17.9025 20.7114 18.296 20.7114H21.3592C21.7406 20.7114 22.0554 21.014 22.0554 21.4075V48.9642C22.0554 53.7587 19.4402 56.5132 14.8938 56.5132C13.4954 56.5132 12.3936 56.5132 9.31834 54.9997L2.97402 51.3433C1.4061 50.4352 0.4375 48.7402 0.4375 46.9301V19.0224C0.4375 17.2062 1.4061 15.5112 2.97402 14.6152L27.1829 0.649264C28.7145 -0.216421 30.7486 -0.216421 32.2681 0.649264L56.4467 14.6213C58.0086 15.5233 58.9832 17.2123 58.9832 19.0284V46.9362C58.9832 48.7462 58.0086 50.4352 56.4467 51.3433L32.2681 65.3093C31.4932 65.7572 30.6154 65.9873 29.7194 65.9873L29.7219 66ZM37.1922 46.7697C26.6102 46.7697 24.3915 41.9122 24.3915 37.838C24.3915 37.4506 24.7039 37.1418 25.092 37.1418H28.2157C28.5608 37.1418 28.8513 37.393 28.9058 37.7339C29.378 40.9169 30.7825 42.5224 37.1813 42.5224C42.2785 42.5224 44.4458 41.371 44.4458 38.668C44.4458 37.1122 43.8283 35.9559 35.91 35.181C29.2872 34.5272 25.1949 33.0683 25.1949 27.7712C25.1949 22.8919 29.3114 19.9861 36.2066 19.9861C43.9494 19.9861 47.7874 22.674 48.2717 28.4493C48.2899 28.649 48.2173 28.8427 48.0841 28.988C47.9509 29.1273 47.7632 29.212 47.5695 29.212H44.4276C44.1007 29.212 43.8162 28.982 43.7496 28.6672C42.9929 25.3195 41.1646 24.248 36.1945 24.248C30.6311 24.248 29.9834 26.1852 29.9834 27.6381C29.9834 29.3997 30.7462 29.9143 38.2528 30.9071C45.6868 31.8938 49.2161 33.2862 49.2161 38.5106C49.2161 43.7773 44.8211 46.7981 37.1571 46.7981L37.1922 46.7697Z" fill="#689F63"/>
</svg>
