<svg width="66" height="66" viewBox="0 0 66 66" fill="none" xmlns="http://www.w3.org/2000/svg">
<path d="M33 66C51.2254 66 66 51.2254 66 33C66 14.7746 51.2254 0 33 0C14.7746 0 0 14.7746 0 33C0 51.2254 14.7746 66 33 66Z" fill="#13AA52"/>
<path d="M41.8219 28.9678C39.7374 19.7684 34.8113 16.7436 34.2808 15.588C33.7008 14.7727 33.1129 13.3225 33.1129 13.3225C33.1033 13.298 33.0878 13.2548 33.0698 13.2129C33.0098 14.0282 32.9789 14.3428 32.208 15.1652C31.0144 16.0985 24.89 21.2373 24.3918 31.689C23.9271 41.4369 31.4333 47.2454 32.4484 47.986L32.5638 48.0679V48.0608C32.5703 48.1097 32.8861 50.3811 33.1078 52.7878H33.9031C34.0898 51.0865 34.3695 49.3968 34.741 47.7262L34.8055 47.6844C35.2596 47.3588 35.6925 47.0046 36.1016 46.6241L36.148 46.5822C38.3059 44.5887 42.1854 39.9777 42.1473 32.6262C42.1393 31.3999 42.0305 30.1763 41.8219 28.9678ZM33.0234 42.4823C33.0234 42.4823 33.0234 28.8105 33.4745 28.8131C33.8264 28.8131 34.2821 46.4481 34.2821 46.4481C33.6556 46.3727 33.0234 43.5458 33.0234 42.4823Z" fill="white"/>
</svg>
