<svg width="76" height="76" viewBox="0 0 76 76" fill="none" xmlns="http://www.w3.org/2000/svg">
<path d="M52.9435 27.8279H52.9198C52.9042 27.8243 52.8901 27.816 52.8794 27.8041C52.8596 27.7827 52.845 27.7569 52.8368 27.7289C52.8285 27.7009 52.8269 27.6714 52.8319 27.6426L54.1737 19.4465L60.4699 25.7355L53.9125 28.5C53.8944 28.5073 53.8751 28.5114 53.8555 28.5119H53.8413C53.8413 28.5119 53.8246 28.5119 53.808 28.4858C53.5621 28.2158 53.2692 27.9929 52.9435 27.8279ZM62.073 27.3291L68.8037 34.0528C70.2026 35.4493 70.9009 36.1475 71.1574 36.955C71.1952 37.0735 71.2261 37.194 71.25 37.316L55.1665 30.514H55.1404C55.0762 30.4879 55.0003 30.457 55.0003 30.3905C55.0003 30.324 55.0762 30.2931 55.1404 30.267H55.1594L62.073 27.3291ZM70.9745 39.4749C70.3624 40.3913 69.6325 41.2233 68.8037 41.9496L61.218 49.5259L51.4045 47.4834H51.3522C51.2668 47.4691 51.1717 47.4549 51.1717 47.3741C51.1338 46.9698 51.0133 46.5776 50.8176 46.2218C50.6219 45.8659 50.3552 45.5541 50.0341 45.3055C49.9937 45.2651 50.0056 45.2034 50.0151 45.144V45.1203L51.8629 33.801V33.763C51.8629 33.6775 51.889 33.5754 51.9697 33.5754C52.3652 33.5262 52.747 33.3988 53.0927 33.2006C53.4385 33.0025 53.7414 32.7375 53.9837 32.4211C53.9958 32.402 54.0121 32.3857 54.0312 32.3736C54.0914 32.3579 54.1554 32.3664 54.2094 32.3974L70.9745 39.4749ZM59.4724 51.2691L46.9965 63.7331L49.134 50.6208V50.6018V50.5543C49.1506 50.5115 49.1958 50.4949 49.2409 50.4759H49.2623C49.7294 50.2768 50.1429 49.97 50.4688 49.5805C50.5073 49.528 50.5626 49.4903 50.6255 49.4736C50.642 49.4713 50.6588 49.4713 50.6754 49.4736L59.4724 51.2691ZM44.3555 66.3694L42.9495 67.7754L27.4028 45.3293L27.3837 45.3055C27.3555 45.278 27.3393 45.2404 27.3386 45.201C27.3441 45.1727 27.3572 45.1464 27.3766 45.125L27.3933 45.1036C27.4408 45.0348 27.4811 44.9659 27.5263 44.8899L27.5619 44.8305C27.5813 44.7884 27.6127 44.7529 27.6521 44.7284C27.6929 44.7141 27.7373 44.7141 27.778 44.7284L45.0039 48.2766C45.0522 48.2846 45.0978 48.3041 45.1369 48.3336C45.1549 48.3544 45.1665 48.38 45.1701 48.4073V48.4405C45.2941 48.8882 45.5188 49.3016 45.8272 49.649C46.1355 49.9964 46.5192 50.2687 46.949 50.445C46.9965 50.4688 46.9751 50.5234 46.949 50.5804C46.9382 50.6058 46.9294 50.632 46.9229 50.6588C46.7163 51.9721 44.8543 63.3104 44.3555 66.3694ZM41.4176 69.3025C40.7845 70.0687 39.9842 70.6797 39.0783 71.0885C38.3967 71.3046 37.665 71.3046 36.9835 71.0885C36.1736 70.832 35.4754 70.1385 34.0765 68.7373L18.4633 53.1406L22.5411 46.8208C22.558 46.7892 22.5815 46.7617 22.61 46.74C22.6349 46.7282 22.662 46.7221 22.6896 46.7221C22.7171 46.7221 22.7443 46.7282 22.7691 46.74C23.1699 46.8635 23.5871 46.9252 24.0065 46.9229C24.5577 46.9198 25.1031 46.8093 25.612 46.5975C25.6316 46.5853 25.6542 46.5788 25.6773 46.5788C25.7004 46.5788 25.723 46.5853 25.7426 46.5975C25.7605 46.6154 25.7772 46.6344 25.7925 46.6545L41.4176 69.3025ZM16.9551 51.6373L13.376 48.0581L20.4511 45.0443C20.47 45.0409 20.4893 45.0409 20.5081 45.0443C20.5675 45.0443 20.6007 45.1036 20.634 45.1583L20.6578 45.1963C20.7242 45.2984 20.7931 45.3886 20.8596 45.4765L20.881 45.505C20.9 45.5335 20.881 45.562 20.8668 45.5929L16.9551 51.6373ZM11.7919 46.4764L7.26037 41.9496C6.4885 41.1801 5.93038 40.622 5.54325 40.1399L19.3182 42.9899H19.3705C19.456 43.0041 19.551 43.0184 19.551 43.0991C19.551 43.1799 19.4489 43.225 19.361 43.2606L19.3206 43.2773L11.7919 46.4764ZM4.75 37.8124C4.76677 37.5205 4.81941 37.2317 4.90675 36.9526C5.16325 36.1451 5.85675 35.4469 7.26037 34.0504L13.0625 28.2625C14.0125 29.6638 20.3324 38.7743 21.0686 39.8288L21.0924 39.8596C21.1399 39.9238 21.1921 39.9926 21.1399 40.0449C20.8751 40.3209 20.6446 40.6279 20.4535 40.9593C20.4339 41.0012 20.4046 41.0378 20.368 41.0661C20.3444 41.0758 20.318 41.0758 20.2944 41.0661L4.75 37.8124ZM14.611 26.7093L22.4081 18.9193C23.142 19.2399 25.8091 20.3656 28.1936 21.3726C30.001 22.135 31.6469 22.8309 32.1623 23.0518C32.188 23.0583 32.212 23.0701 32.2329 23.0864C32.2537 23.1028 32.2709 23.1234 32.2834 23.1468C32.2941 23.1808 32.2941 23.2173 32.2834 23.2513C32.2315 23.4973 32.2052 23.748 32.205 23.9994C32.2054 24.9049 32.56 25.7744 33.193 26.4219C33.2452 26.4718 33.193 26.5478 33.1479 26.6143L33.1241 26.6499L25.2083 38.9001C25.1904 38.9337 25.1652 38.963 25.1346 38.9856C25.111 38.9956 25.0855 39.0008 25.0598 39.0008C25.0341 39.0008 25.0087 38.9956 24.985 38.9856C24.6747 38.9043 24.3557 38.8612 24.035 38.8574C23.7308 38.8674 23.428 38.9039 23.1301 38.9666C23.1157 38.9738 23.0999 38.9775 23.0838 38.9775C23.0677 38.9775 23.0519 38.9738 23.0375 38.9666C23.0066 38.942 22.98 38.9123 22.9591 38.8788L14.611 26.7093ZM23.9875 17.3375L34.0836 7.25326C35.4825 5.85676 36.1807 5.15851 36.9906 4.90201C37.6722 4.6859 38.4038 4.6859 39.0854 4.90201C39.8953 5.15851 40.5935 5.85201 41.9924 7.25326L44.1797 9.43826L36.9954 20.5556C36.9769 20.5875 36.9527 20.6156 36.9241 20.6388C36.8995 20.6499 36.8728 20.6557 36.8457 20.6557C36.8187 20.6557 36.792 20.6499 36.7674 20.6388C36.4131 20.5363 36.0461 20.4843 35.6772 20.4844C34.8608 20.4912 34.0704 20.7723 33.4329 21.2824C33.3854 21.3275 33.3165 21.299 33.2571 21.2824C32.319 20.8668 25.0254 17.7864 23.9875 17.3375ZM45.7021 10.9606L52.3331 17.5845L50.7371 27.4645V27.4906C50.7363 27.5135 50.7315 27.536 50.7229 27.5571C50.7062 27.5928 50.673 27.5999 50.6374 27.607H50.5994C50.2714 27.7105 49.9625 27.867 49.685 28.0701L49.6517 28.101C49.6435 28.1127 49.6329 28.1226 49.6207 28.13C49.6084 28.1373 49.5947 28.142 49.5805 28.1438C49.5554 28.1459 49.5301 28.1418 49.5069 28.1319L39.406 23.845H39.3846C39.3205 23.8189 39.2445 23.788 39.2445 23.7215C39.1872 23.1733 39.0114 22.6441 38.7291 22.1706L38.7078 22.135C38.6579 22.0543 38.6056 21.9711 38.646 21.8975L45.7021 10.9606ZM38.8716 25.8875L48.3408 29.8941C48.3956 29.9091 48.4425 29.9449 48.4714 29.9939C48.4808 30.0257 48.4808 30.0595 48.4714 30.0913C48.4407 30.2414 48.424 30.394 48.4215 30.5473V30.8133C48.4215 30.8774 48.3526 30.9059 48.2909 30.932H48.2695C46.7709 31.5709 27.208 39.9024 27.1795 39.9024C27.1633 39.9044 27.1468 39.9029 27.1313 39.8979C27.1157 39.893 27.1014 39.8848 27.0893 39.8739C27.037 39.824 27.0893 39.748 27.1344 39.6815L27.1581 39.6459L34.941 27.6118L34.9553 27.5904C35.0004 27.5168 35.0526 27.436 35.1357 27.436L35.2141 27.4479C35.3758 27.4758 35.5393 27.4916 35.7034 27.4954C36.2829 27.4976 36.854 27.3568 37.3661 27.0854C37.8781 26.8141 38.3153 26.4205 38.6389 25.9398C38.6539 25.9138 38.6732 25.8905 38.6959 25.8709C38.7242 25.8588 38.7552 25.854 38.7859 25.8569C38.8165 25.8598 38.846 25.8703 38.8716 25.8875ZM28.025 41.8261L49.3454 32.7441C49.3685 32.7462 49.3898 32.7573 49.4048 32.775C49.502 32.87 49.6051 32.9589 49.7135 33.041L49.761 33.0719C49.8037 33.098 49.8489 33.1241 49.8512 33.1693V33.212L48.0225 44.4125V44.4576C48.0225 44.5455 47.9987 44.6453 47.9156 44.6453C47.4304 44.6788 46.9606 44.83 46.5468 45.0857C46.133 45.3414 45.7877 45.694 45.5406 46.113V46.1273C45.5214 46.1682 45.4909 46.2028 45.4528 46.227C45.4133 46.239 45.3711 46.239 45.3316 46.227L28.329 42.7239C28.329 42.7239 28.044 41.8285 28.025 41.8261Z" fill="url(#paint0_linear_83_171)"/>
<defs>
<linearGradient id="paint0_linear_83_171" x1="38" y1="4.75001" x2="38" y2="71.25" gradientUnits="userSpaceOnUse">
<stop stop-color="#21C6B7"/>
<stop offset="1" stop-color="#4C9BBF"/>
</linearGradient>
</defs>
</svg>
