<svg width="66" height="66" viewBox="0 0 66 66" fill="none" xmlns="http://www.w3.org/2000/svg">
<path d="M19.8 19.8L21.5835 18.5119C21.0248 17.7383 20.0311 17.4131 19.1231 17.7067C18.2152 18.0003 17.6 18.8458 17.6 19.8H19.8ZM33 61.6C17.2047 61.6 4.4 48.7956 4.4 33H0C0 51.2252 14.7746 66 33 66V61.6ZM61.6 33C61.6 48.7956 48.7956 61.6 33 61.6V66C51.2252 66 66 51.2252 66 33H61.6ZM33 4.4C48.7956 4.4 61.6 17.2047 61.6 33H66C66 14.7746 51.2252 0 33 0V4.4ZM33 0C14.7746 0 0 14.7746 0 33H4.4C4.4 17.2047 17.2047 4.4 33 4.4V0ZM22 52.8V19.8H17.6V52.8H22ZM18.0165 21.0881L46.6167 60.6879L50.1833 58.1121L21.5835 18.5119L18.0165 21.0881ZM44 17.6V44H48.4V17.6H44Z" fill="black"/>
</svg>
