<svg width="74" height="74" viewBox="0 0 74 74" fill="none" xmlns="http://www.w3.org/2000/svg">
<path d="M60.8429 25.3865C60.0752 25.1223 59.2797 24.8723 58.4607 24.6359C58.5953 24.0865 58.7189 23.5442 58.8287 23.0111C60.632 14.258 59.453 7.2064 55.427 4.88472C51.5665 2.65854 45.2531 4.97969 38.8769 10.5287C38.2637 11.0623 37.6488 11.6273 37.0342 12.2194C36.6247 11.8276 36.2159 11.4491 35.8081 11.087C29.1256 5.15356 22.4274 2.65314 18.4054 4.98153C14.5486 7.21417 13.4065 13.8433 15.0297 22.1387C15.1864 22.94 15.3696 23.7582 15.5768 24.5901C14.6288 24.8592 13.7137 25.1461 12.838 25.4513C5.00348 28.1828 0 32.4636 0 36.904C0 41.4901 5.37124 46.09 13.5315 48.8791C14.1755 49.0992 14.8437 49.3074 15.5323 49.5049C15.3088 50.4047 15.1144 51.2864 14.9512 52.1464C13.4035 60.2979 14.6121 66.7704 18.4586 68.9889C22.4316 71.2801 29.0995 68.9251 35.5923 63.2495C36.1055 62.8009 36.6205 62.3251 37.1365 61.8265C37.8052 62.4704 38.4729 63.0799 39.137 63.6516C45.4261 69.0635 51.6375 71.2488 55.4804 69.0241C59.4495 66.7264 60.7395 59.7733 59.0648 51.3138C58.9369 50.6677 58.788 50.0077 58.6209 49.3359C59.0891 49.1975 59.5488 49.0546 59.9971 48.906C68.4804 46.0953 74 41.5513 74 36.904C74 32.4476 68.8352 28.1379 60.8429 25.3865ZM59.0029 45.9053C58.5982 46.0393 58.183 46.1688 57.76 46.2943C56.8234 43.3294 55.5595 40.1767 54.0127 36.9194C55.4887 33.7397 56.7038 30.6274 57.6142 27.6817C58.3711 27.9008 59.1059 28.1318 59.8139 28.3756C66.6617 30.733 70.8387 34.2184 70.8387 36.904C70.8387 39.7647 66.3276 43.4783 59.0029 45.9053ZM55.9636 51.9278C56.7041 55.6685 56.8099 59.0505 56.3194 61.6943C55.8786 64.07 54.9923 65.6539 53.8964 66.2883C51.5643 67.6382 46.5772 65.8835 41.1987 61.2552C40.5821 60.7246 39.961 60.1581 39.338 59.5585C41.4231 57.2781 43.507 54.627 45.5409 51.6826C49.1183 51.3652 52.4981 50.8462 55.563 50.1377C55.714 50.7466 55.8481 51.3439 55.9636 51.9278ZM25.2283 66.055C22.9498 66.8597 21.1351 66.8828 20.0381 66.2502C17.704 64.9039 16.7336 59.7071 18.0572 52.736C18.2088 51.9376 18.3893 51.1176 18.5973 50.2793C21.6287 50.9496 24.9837 51.432 28.5696 51.7227C30.6172 54.6038 32.7613 57.252 34.922 59.5708C34.4499 60.0265 33.9797 60.4604 33.5121 60.8692C30.641 63.3789 27.7639 65.1595 25.2283 66.055ZM14.5539 45.8878C10.9456 44.6545 7.96571 43.0516 5.92314 41.3025C4.08777 39.7307 3.16112 38.1702 3.16112 36.904C3.16112 34.2095 7.17842 30.7725 13.8786 28.4365C14.6915 28.153 15.5426 27.8859 16.4258 27.635C17.3517 30.6471 18.5665 33.7964 20.0324 36.981C18.5475 40.2128 17.3155 43.4123 16.3804 46.4597C15.7508 46.2787 15.1408 46.0883 14.5539 45.8878ZM18.132 21.5316C16.7414 14.4243 17.665 9.06285 19.9891 7.71747C22.4648 6.28424 27.9392 8.32772 33.709 13.4509C34.0778 13.7784 34.4481 14.1211 34.8194 14.4757C32.6693 16.7843 30.5448 19.4127 28.5155 22.2768C25.0352 22.5993 21.7037 23.1175 18.6407 23.8114C18.4482 23.0368 18.2776 22.2757 18.132 21.5316ZM50.0523 29.4136C49.3201 28.1488 48.5684 26.9139 47.802 25.7128C50.1631 26.0113 52.4252 26.4075 54.5496 26.8923C53.9118 28.9363 53.1169 31.0735 52.1811 33.2644C51.5099 31.99 50.7999 30.7051 50.0523 29.4136ZM37.0353 16.735C38.4934 18.3147 39.9537 20.0784 41.3899 21.992C39.9426 21.9236 38.4774 21.8881 37 21.8881C35.5366 21.8881 34.0822 21.9228 32.6438 21.99C34.0815 20.0942 35.5544 18.3328 37.0353 16.735ZM23.9349 29.4354C23.2035 30.7038 22.5067 31.9817 21.846 33.262C20.9254 31.0788 20.1379 28.9319 19.4945 26.8589C21.6059 26.3864 23.8573 26.0001 26.2034 25.7073C25.4262 26.9195 24.6683 28.1634 23.9349 29.4352V29.4354ZM26.271 48.3263C23.8471 48.0559 21.5617 47.6894 19.4509 47.23C20.1045 45.12 20.9095 42.9273 21.8495 40.697C22.512 41.9764 23.2115 43.2549 23.9474 44.526H23.9476C24.6972 45.8209 25.4738 47.0893 26.271 48.3263ZM37.1228 57.296C35.6245 55.6794 34.13 53.8912 32.6704 51.9677C34.0873 52.0233 35.5319 52.0517 37 52.0517C38.5083 52.0517 39.9994 52.0177 41.467 51.9524C40.026 53.9105 38.571 55.7015 37.1228 57.296ZM52.2113 40.5833C53.2004 42.8377 54.0342 45.019 54.6962 47.093C52.5506 47.5825 50.2341 47.9767 47.7933 48.2697C48.5615 47.0523 49.3198 45.7962 50.0649 44.5042C50.8188 43.197 51.5345 41.8879 52.2113 40.5833ZM47.3266 42.9249C46.1699 44.9306 44.9823 46.8453 43.7767 48.6526C41.5808 48.8096 39.3122 48.8905 37 48.8905C34.6972 48.8905 32.4571 48.8189 30.3001 48.6789C29.0459 46.8479 27.8325 44.9276 26.6831 42.9422H26.6834C25.537 40.9622 24.482 38.9654 23.5259 36.9799C24.4817 34.9898 25.534 32.9908 26.6738 31.0143L26.6735 31.0147C27.8163 29.033 29.019 27.122 30.2617 25.3025C32.4624 25.1361 34.7192 25.0493 36.9999 25.0493H37C39.291 25.0493 41.5506 25.1368 43.7507 25.3046C44.9744 27.1109 46.169 29.0156 47.3162 30.9976C48.4765 33.0019 49.5424 34.9875 50.5063 36.935C49.5453 38.9159 48.4818 40.9216 47.3266 42.9249ZM53.8479 7.62342C56.3259 9.05244 57.2896 14.8157 55.7327 22.3731C55.6334 22.8553 55.5215 23.3465 55.4001 23.8442C52.33 23.1358 48.9962 22.6087 45.5058 22.2812C43.4724 19.3857 41.3653 16.7533 39.2503 14.4743C39.8189 13.9272 40.3868 13.4056 40.9522 12.9134C46.4154 8.15899 51.5215 6.28186 53.8479 7.62342ZM37 30.2961C40.6494 30.2961 43.6079 33.2545 43.6079 36.904C43.6079 40.5534 40.6494 43.512 37 43.512C33.3506 43.512 30.3921 40.5534 30.3921 36.904C30.3921 33.2545 33.3506 30.2961 37 30.2961Z" fill="#00D8FF"/>
</svg>
