<svg width="75" height="75" viewBox="0 0 75 75" fill="none" xmlns="http://www.w3.org/2000/svg">
<path d="M62.039 13.3594C58.9661 9.14296 54.4355 6.21929 49.3276 5.15637C44.2196 4.09346 38.8989 4.96719 34.3991 7.60784L18.6561 17.3438C16.546 18.6154 14.7283 20.3187 13.3223 22.3418C11.9163 24.365 10.9537 26.6625 10.4976 29.0836C9.74909 33.1333 10.4108 37.3172 12.3726 40.9383C11.0282 42.9152 10.1095 45.15 9.67489 47.5008C9.2275 49.955 9.28784 52.4748 9.85219 54.9047C10.4165 57.3347 11.4729 59.6231 12.9561 61.6289C16.0291 65.8458 20.5593 68.7704 25.6673 69.835C30.7753 70.8995 36.0967 70.0281 40.5983 67.3899L56.3436 57.6563C58.4532 56.3838 60.2703 54.6803 61.6762 52.6573C63.0821 50.6343 64.0451 48.3372 64.5022 45.9164C65.2554 41.8637 64.5935 37.6753 62.6272 34.0524C63.973 32.076 64.8926 29.8411 65.3272 27.4899C65.7745 25.0349 65.7135 22.5142 65.1479 20.0838C64.5823 17.6533 63.5242 15.3647 62.039 13.3594Z" fill="#FF3E00"/>
<path d="M32.8635 62.4375C30.402 63.0688 27.8075 62.9463 25.4164 62.0859C23.0252 61.2254 20.9476 59.6667 19.4526 57.6117C18.5574 56.407 17.9192 55.0313 17.5773 53.5699C17.2354 52.1085 17.1972 50.5924 17.4651 49.1156C17.5542 48.6306 17.6788 48.1527 17.8378 47.6859L18.1354 46.807L18.9417 47.3648C20.8132 48.6978 22.8953 49.7071 25.101 50.3508L25.6753 50.5219L25.6167 51.0773C25.5492 51.8853 25.7746 52.6906 26.2518 53.3461C26.7004 53.9805 27.3317 54.463 28.0616 54.7294C28.7915 54.9957 29.5853 55.0331 30.337 54.8367C30.6766 54.7484 31.0012 54.6102 31.3003 54.4266L47.0034 44.6906C47.3857 44.4588 47.7153 44.1495 47.9708 43.7825C48.2263 43.4156 48.4022 42.9992 48.487 42.5601C48.5714 42.1175 48.5643 41.6622 48.4659 41.2224C48.3675 40.7826 48.1801 40.3676 47.9151 40.0031C47.4642 39.3831 46.8376 38.9128 46.1164 38.6529C45.3951 38.393 44.6125 38.3555 43.8698 38.5453C43.5284 38.6338 43.2021 38.7728 42.9018 38.9578L36.8737 42.6703C35.8829 43.2835 34.8051 43.7433 33.6768 44.0344C31.2133 44.6673 28.6164 44.5454 26.223 43.6845C23.8296 42.8236 21.7501 41.2634 20.2542 39.2062C19.365 37.9976 18.7333 36.6193 18.3983 35.1567C18.0633 33.6941 18.032 32.1783 18.3065 30.7031C18.5832 29.2499 19.1619 27.8711 20.0053 26.6558C20.8488 25.4405 21.938 24.416 23.2026 23.6484L38.9245 13.9125C39.9154 13.3001 40.9932 12.841 42.1214 12.5508C44.585 11.9164 47.1824 12.0374 49.5764 12.8979C51.9704 13.7585 54.0504 15.3189 55.5463 17.3766C56.4414 18.5813 57.0796 19.957 57.4215 21.4184C57.7633 22.8798 57.8016 24.3959 57.5338 25.8726C57.445 26.3577 57.3204 26.8356 57.1612 27.3023L56.8635 28.1812L56.0573 27.6258C54.1868 26.291 52.1044 25.2815 49.8979 24.6398L49.3237 24.4664L49.3823 23.9109C49.4497 23.1026 49.2234 22.2971 48.7448 21.6422C48.2951 21.0214 47.669 20.5504 46.9479 20.2904C46.2268 20.0304 45.4442 19.9934 44.7018 20.1844C44.3617 20.2724 44.037 20.4115 43.7385 20.5969L27.9839 30.3C27.6014 30.5306 27.2719 30.8393 27.0171 31.2061C26.7622 31.5728 26.5877 31.9893 26.5049 32.4281C26.4183 32.8711 26.4244 33.3272 26.5228 33.7677C26.6213 34.2082 26.8099 34.6235 27.0768 34.9875C27.528 35.607 28.1548 36.0769 28.876 36.3364C29.5972 36.5959 30.3796 36.633 31.1221 36.443C31.4631 36.3543 31.7892 36.2161 32.0901 36.0328L38.0948 32.318C39.0852 31.7045 40.1631 31.2454 41.2917 30.9562C43.7553 30.3232 46.3523 30.4448 48.7461 31.3052C51.1398 32.1657 53.2199 33.7253 54.7167 35.782C55.6094 36.9878 56.2454 38.3639 56.5852 39.8253C56.925 41.2866 56.9615 42.8021 56.6924 44.2781C56.4177 45.7329 55.8397 47.1135 54.9962 48.3302C54.1526 49.5469 53.0624 50.5723 51.7963 51.3398L36.0768 61.0758C35.0864 61.6892 34.0085 62.1484 32.8799 62.4375" fill="white"/>
</svg>
