<svg width="67" height="70" viewBox="0 0 67 70" fill="none" xmlns="http://www.w3.org/2000/svg">
<rect y="59" width="67" height="11" fill="#F7ACD4"/>
<path d="M15.66 64V51.58H31.41C35.25 51.58 38.61 50.83 41.49 49.33C44.37 47.77 46.59 45.52 48.15 42.58C49.71 39.64 50.49 36.16 50.49 32.14C50.49 28.12 49.68 24.67 48.06 21.79C46.5 18.91 44.28 16.69 41.4 15.13C38.58 13.57 35.25 12.79 31.41 12.79H15.21V0.459997H31.59C36.39 0.459997 40.8 1.24 44.82 2.8C48.9 4.3 52.44 6.49 55.44 9.37C58.5 12.19 60.84 15.55 62.46 19.45C64.14 23.29 64.98 27.55 64.98 32.23C64.98 36.85 64.14 41.11 62.46 45.01C60.84 48.91 58.53 52.27 55.53 55.09C52.53 57.91 48.99 60.1 44.91 61.66C40.89 63.22 36.51 64 31.77 64H15.66ZM6.12 64V0.459997H20.25V64H6.12Z" fill="#337AB7"/>
</svg>
