<?xml version="1.0" encoding="UTF-8" standalone="no"?>
<!DOCTYPE svg PUBLIC "-//W3C//DTD SVG 1.1//EN" "http://www.w3.org/Graphics/SVG/1.1/DTD/svg11.dtd">
<svg width="100%" height="100%" viewBox="0 0 246 234" version="1.1" xmlns="http://www.w3.org/2000/svg" xmlns:xlink="http://www.w3.org/1999/xlink" xml:space="preserve" xmlns:serif="http://www.serif.com/" style="fill-rule:evenodd;clip-rule:evenodd;stroke-linejoin:round;stroke-miterlimit:2;">
    <g id="Artboard1" transform="matrix(0.541091,0,0,0.538989,67.7324,63.4272)">
        <rect x="-125.178" y="-117.678" width="453.645" height="433.66" style="fill:none;"/>
        <g transform="matrix(1.84812,0,0,1.85533,-126.426,-122.937)">
            <path d="M128,219.155C141.742,216.852 156.251,225.64 169.312,220.788C182.414,215.92 188.695,201.188 199.666,192.529C212.768,182.188 232.766,179.336 240.542,164.567C248.13,150.156 245.207,131.62 239.833,116.246C234.689,101.531 221.705,91.412 211.007,80.076C201.955,70.484 189.662,64.739 181.472,54.402C170.072,40.012 169.781,16.259 153.591,7.605C138.624,-0.395 118.479,4.751 103.497,12.721C88.76,20.56 85.872,41.632 72.045,50.984C57.572,60.772 35.727,55.493 22.83,67.28C9.95,79.051 -1.932,97.84 2.24,114.782C6.947,133.897 37.567,136.705 44.464,155.142C50.919,172.397 30.188,192.52 37.624,209.375C44.417,224.772 63.295,233.94 80.027,235.75C97.035,237.591 111.127,221.982 128,219.155Z" style="fill:rgb(247,172,212);fill-rule:nonzero;"/>
        </g>
    </g>
</svg>
